<mxfile host="app.diagrams.net" agent="Mozilla/5.0 (Windows NT 10.0; Win64; x64) AppleWebKit/537.36 (KHTML, like Gecko) Chrome/131.0.0.0 Safari/537.36" version="26.0.4">
  <diagram name="Seite-1" id="eBkGoB-VjghT2hFESoYy">
    <mxGraphModel dx="2261" dy="772" grid="1" gridSize="10" guides="1" tooltips="1" connect="1" arrows="1" fold="1" page="1" pageScale="1" pageWidth="827" pageHeight="1169" math="0" shadow="0">
      <root>
        <mxCell id="0" />
        <mxCell id="1" parent="0" />
        <mxCell id="jRRmsLyylkFgdRP5rCnA-1" value="Start" style="rounded=1;whiteSpace=wrap;html=1;" vertex="1" parent="1">
          <mxGeometry x="330" y="60" width="110" height="40" as="geometry" />
        </mxCell>
        <mxCell id="jRRmsLyylkFgdRP5rCnA-4" value="Choose a random word" style="rounded=0;whiteSpace=wrap;html=1;" vertex="1" parent="1">
          <mxGeometry x="310" y="150" width="150" height="40" as="geometry" />
        </mxCell>
        <mxCell id="jRRmsLyylkFgdRP5rCnA-11" value="" style="endArrow=classic;html=1;rounded=0;" edge="1" parent="1">
          <mxGeometry width="50" height="50" relative="1" as="geometry">
            <mxPoint x="384.5" y="300" as="sourcePoint" />
            <mxPoint x="384.5" y="350" as="targetPoint" />
          </mxGeometry>
        </mxCell>
        <mxCell id="jRRmsLyylkFgdRP5rCnA-12" value="Is guess == random&lt;div&gt;&amp;nbsp;alphabet&lt;/div&gt;" style="rhombus;whiteSpace=wrap;html=1;" vertex="1" parent="1">
          <mxGeometry x="306.88" y="350" width="156.25" height="120" as="geometry" />
        </mxCell>
        <mxCell id="jRRmsLyylkFgdRP5rCnA-13" value="" style="endArrow=classic;html=1;rounded=0;" edge="1" parent="1">
          <mxGeometry width="50" height="50" relative="1" as="geometry">
            <mxPoint x="463.13" y="409.5" as="sourcePoint" />
            <mxPoint x="576.88" y="410" as="targetPoint" />
          </mxGeometry>
        </mxCell>
        <mxCell id="jRRmsLyylkFgdRP5rCnA-15" value="NO" style="rounded=0;whiteSpace=wrap;html=1;" vertex="1" parent="1">
          <mxGeometry x="490" y="380" width="50" height="30" as="geometry" />
        </mxCell>
        <mxCell id="jRRmsLyylkFgdRP5rCnA-16" value="" style="endArrow=classic;html=1;rounded=0;" edge="1" parent="1">
          <mxGeometry width="50" height="50" relative="1" as="geometry">
            <mxPoint x="574.5" y="410" as="sourcePoint" />
            <mxPoint x="574.5" y="310" as="targetPoint" />
            <Array as="points">
              <mxPoint x="574.5" y="330" />
            </Array>
          </mxGeometry>
        </mxCell>
        <mxCell id="jRRmsLyylkFgdRP5rCnA-17" value="Is number of attempts reached" style="rhombus;whiteSpace=wrap;html=1;" vertex="1" parent="1">
          <mxGeometry x="500" y="210" width="150" height="100" as="geometry" />
        </mxCell>
        <mxCell id="jRRmsLyylkFgdRP5rCnA-18" value="" style="endArrow=classic;html=1;rounded=0;" edge="1" parent="1">
          <mxGeometry width="50" height="50" relative="1" as="geometry">
            <mxPoint x="650" y="259.5" as="sourcePoint" />
            <mxPoint x="790" y="260" as="targetPoint" />
          </mxGeometry>
        </mxCell>
        <mxCell id="jRRmsLyylkFgdRP5rCnA-19" value="yes" style="rounded=0;whiteSpace=wrap;html=1;" vertex="1" parent="1">
          <mxGeometry x="690" y="230" width="50" height="30" as="geometry" />
        </mxCell>
        <mxCell id="jRRmsLyylkFgdRP5rCnA-22" value="" style="endArrow=classic;html=1;rounded=0;" edge="1" parent="1">
          <mxGeometry width="50" height="50" relative="1" as="geometry">
            <mxPoint x="790" y="260" as="sourcePoint" />
            <mxPoint x="790" y="930" as="targetPoint" />
          </mxGeometry>
        </mxCell>
        <mxCell id="jRRmsLyylkFgdRP5rCnA-23" value="" style="endArrow=classic;html=1;rounded=0;exitX=0.5;exitY=1;exitDx=0;exitDy=0;" edge="1" parent="1" source="jRRmsLyylkFgdRP5rCnA-12">
          <mxGeometry width="50" height="50" relative="1" as="geometry">
            <mxPoint x="384.5" y="480" as="sourcePoint" />
            <mxPoint x="385" y="530" as="targetPoint" />
          </mxGeometry>
        </mxCell>
        <mxCell id="jRRmsLyylkFgdRP5rCnA-24" value="fill in blank spaces" style="rounded=0;whiteSpace=wrap;html=1;" vertex="1" parent="1">
          <mxGeometry x="330" y="530" width="120" height="40" as="geometry" />
        </mxCell>
        <mxCell id="jRRmsLyylkFgdRP5rCnA-26" value="" style="endArrow=classic;html=1;rounded=0;" edge="1" parent="1">
          <mxGeometry width="50" height="50" relative="1" as="geometry">
            <mxPoint x="384.5" y="570" as="sourcePoint" />
            <mxPoint x="384.5" y="620" as="targetPoint" />
          </mxGeometry>
        </mxCell>
        <mxCell id="jRRmsLyylkFgdRP5rCnA-27" value="Is word completed" style="rhombus;whiteSpace=wrap;html=1;" vertex="1" parent="1">
          <mxGeometry x="306.25" y="620" width="157.5" height="80" as="geometry" />
        </mxCell>
        <mxCell id="jRRmsLyylkFgdRP5rCnA-29" value="" style="endArrow=classic;html=1;rounded=0;" edge="1" parent="1">
          <mxGeometry width="50" height="50" relative="1" as="geometry">
            <mxPoint x="384.5" y="700" as="sourcePoint" />
            <mxPoint x="385" y="770" as="targetPoint" />
          </mxGeometry>
        </mxCell>
        <mxCell id="jRRmsLyylkFgdRP5rCnA-30" value="yes" style="rounded=0;whiteSpace=wrap;html=1;" vertex="1" parent="1">
          <mxGeometry x="389" y="710" width="50" height="30" as="geometry" />
        </mxCell>
        <mxCell id="jRRmsLyylkFgdRP5rCnA-31" value="Print You Won" style="rounded=0;whiteSpace=wrap;html=1;" vertex="1" parent="1">
          <mxGeometry x="325" y="770" width="120" height="40" as="geometry" />
        </mxCell>
        <mxCell id="jRRmsLyylkFgdRP5rCnA-32" value="" style="endArrow=classic;html=1;rounded=0;" edge="1" parent="1">
          <mxGeometry width="50" height="50" relative="1" as="geometry">
            <mxPoint x="384.5" y="810" as="sourcePoint" />
            <mxPoint x="385" y="840" as="targetPoint" />
          </mxGeometry>
        </mxCell>
        <mxCell id="jRRmsLyylkFgdRP5rCnA-33" value="" style="endArrow=classic;html=1;rounded=0;" edge="1" parent="1">
          <mxGeometry width="50" height="50" relative="1" as="geometry">
            <mxPoint x="386.25" y="840" as="sourcePoint" />
            <mxPoint x="580" y="840" as="targetPoint" />
          </mxGeometry>
        </mxCell>
        <mxCell id="jRRmsLyylkFgdRP5rCnA-36" value="End Game" style="rounded=0;whiteSpace=wrap;html=1;" vertex="1" parent="1">
          <mxGeometry x="590" y="820" width="80" height="30" as="geometry" />
        </mxCell>
        <mxCell id="jRRmsLyylkFgdRP5rCnA-37" value="" style="endArrow=classic;html=1;rounded=0;" edge="1" parent="1">
          <mxGeometry width="50" height="50" relative="1" as="geometry">
            <mxPoint x="300" y="660" as="sourcePoint" />
            <mxPoint x="180" y="659.5" as="targetPoint" />
          </mxGeometry>
        </mxCell>
        <mxCell id="jRRmsLyylkFgdRP5rCnA-38" value="NO" style="rounded=0;whiteSpace=wrap;html=1;" vertex="1" parent="1">
          <mxGeometry x="220" y="630" width="50" height="30" as="geometry" />
        </mxCell>
        <mxCell id="jRRmsLyylkFgdRP5rCnA-39" value="" style="endArrow=classic;html=1;rounded=0;" edge="1" parent="1">
          <mxGeometry width="50" height="50" relative="1" as="geometry">
            <mxPoint x="110" y="620" as="sourcePoint" />
            <mxPoint x="110" y="210" as="targetPoint" />
            <Array as="points">
              <mxPoint x="110" y="545" />
            </Array>
          </mxGeometry>
        </mxCell>
        <mxCell id="jRRmsLyylkFgdRP5rCnA-41" value="Is number of attempt reached" style="rhombus;whiteSpace=wrap;html=1;" vertex="1" parent="1">
          <mxGeometry x="40" y="617.5" width="140" height="85" as="geometry" />
        </mxCell>
        <mxCell id="jRRmsLyylkFgdRP5rCnA-42" value="NO" style="rounded=0;whiteSpace=wrap;html=1;" vertex="1" parent="1">
          <mxGeometry x="110" y="535" width="50" height="30" as="geometry" />
        </mxCell>
        <mxCell id="jRRmsLyylkFgdRP5rCnA-44" value="" style="endArrow=classic;html=1;rounded=0;" edge="1" parent="1">
          <mxGeometry width="50" height="50" relative="1" as="geometry">
            <mxPoint x="40" y="660" as="sourcePoint" />
            <mxPoint x="-90" y="660" as="targetPoint" />
          </mxGeometry>
        </mxCell>
        <mxCell id="jRRmsLyylkFgdRP5rCnA-45" value="yes" style="rounded=0;whiteSpace=wrap;html=1;" vertex="1" parent="1">
          <mxGeometry x="-40" y="630" width="50" height="30" as="geometry" />
        </mxCell>
        <mxCell id="jRRmsLyylkFgdRP5rCnA-47" value="" style="endArrow=classic;html=1;rounded=0;" edge="1" parent="1">
          <mxGeometry width="50" height="50" relative="1" as="geometry">
            <mxPoint x="-90" y="660" as="sourcePoint" />
            <mxPoint x="-90" y="910" as="targetPoint" />
          </mxGeometry>
        </mxCell>
        <mxCell id="jRRmsLyylkFgdRP5rCnA-48" value="Print You Failed" style="rounded=0;whiteSpace=wrap;html=1;" vertex="1" parent="1">
          <mxGeometry x="570" y="900" width="100" height="30" as="geometry" />
        </mxCell>
        <mxCell id="jRRmsLyylkFgdRP5rCnA-49" value="" style="endArrow=classic;html=1;rounded=0;entryX=0;entryY=0.5;entryDx=0;entryDy=0;" edge="1" parent="1" target="jRRmsLyylkFgdRP5rCnA-48">
          <mxGeometry width="50" height="50" relative="1" as="geometry">
            <mxPoint x="-90" y="910" as="sourcePoint" />
            <mxPoint x="540" y="920" as="targetPoint" />
          </mxGeometry>
        </mxCell>
        <mxCell id="jRRmsLyylkFgdRP5rCnA-51" value="" style="endArrow=classic;html=1;rounded=0;" edge="1" parent="1">
          <mxGeometry width="50" height="50" relative="1" as="geometry">
            <mxPoint x="780" y="919.5" as="sourcePoint" />
            <mxPoint x="670" y="920" as="targetPoint" />
          </mxGeometry>
        </mxCell>
        <mxCell id="jRRmsLyylkFgdRP5rCnA-52" value="" style="endArrow=classic;html=1;rounded=0;entryX=0.494;entryY=1;entryDx=0;entryDy=0;entryPerimeter=0;" edge="1" parent="1" target="jRRmsLyylkFgdRP5rCnA-36">
          <mxGeometry width="50" height="50" relative="1" as="geometry">
            <mxPoint x="630" y="900" as="sourcePoint" />
            <mxPoint x="629.5" y="860" as="targetPoint" />
            <Array as="points" />
          </mxGeometry>
        </mxCell>
        <mxCell id="jRRmsLyylkFgdRP5rCnA-53" value="" style="endArrow=classic;html=1;rounded=0;" edge="1" parent="1">
          <mxGeometry width="50" height="50" relative="1" as="geometry">
            <mxPoint x="110" y="210" as="sourcePoint" />
            <mxPoint x="370" y="211" as="targetPoint" />
          </mxGeometry>
        </mxCell>
        <mxCell id="jRRmsLyylkFgdRP5rCnA-54" value="" style="endArrow=classic;html=1;rounded=0;" edge="1" parent="1">
          <mxGeometry width="50" height="50" relative="1" as="geometry">
            <mxPoint x="575" y="210" as="sourcePoint" />
            <mxPoint x="574.5" y="150" as="targetPoint" />
            <Array as="points">
              <mxPoint x="574.5" y="170" />
            </Array>
          </mxGeometry>
        </mxCell>
        <mxCell id="jRRmsLyylkFgdRP5rCnA-55" value="Draw Hangmann" style="rounded=0;whiteSpace=wrap;html=1;" vertex="1" parent="1">
          <mxGeometry x="530" y="110" width="120" height="40" as="geometry" />
        </mxCell>
        <mxCell id="jRRmsLyylkFgdRP5rCnA-56" value="" style="endArrow=none;html=1;rounded=0;" edge="1" parent="1">
          <mxGeometry width="50" height="50" relative="1" as="geometry">
            <mxPoint x="480" y="130" as="sourcePoint" />
            <mxPoint x="530" y="130" as="targetPoint" />
          </mxGeometry>
        </mxCell>
        <mxCell id="jRRmsLyylkFgdRP5rCnA-59" value="" style="endArrow=none;html=1;rounded=0;" edge="1" parent="1">
          <mxGeometry width="50" height="50" relative="1" as="geometry">
            <mxPoint x="480" y="210" as="sourcePoint" />
            <mxPoint x="480" y="130" as="targetPoint" />
          </mxGeometry>
        </mxCell>
        <mxCell id="jRRmsLyylkFgdRP5rCnA-60" value="" style="endArrow=classic;html=1;rounded=0;" edge="1" parent="1">
          <mxGeometry width="50" height="50" relative="1" as="geometry">
            <mxPoint x="479" y="210.5" as="sourcePoint" />
            <mxPoint x="390" y="210" as="targetPoint" />
          </mxGeometry>
        </mxCell>
        <mxCell id="jRRmsLyylkFgdRP5rCnA-61" value="" style="endArrow=classic;html=1;rounded=0;" edge="1" parent="1">
          <mxGeometry width="50" height="50" relative="1" as="geometry">
            <mxPoint x="384.5" y="190" as="sourcePoint" />
            <mxPoint x="384.5" y="240" as="targetPoint" />
          </mxGeometry>
        </mxCell>
        <mxCell id="jRRmsLyylkFgdRP5rCnA-63" value="" style="endArrow=classic;html=1;rounded=0;" edge="1" parent="1">
          <mxGeometry width="50" height="50" relative="1" as="geometry">
            <mxPoint x="384.5" y="100" as="sourcePoint" />
            <mxPoint x="384.5" y="150" as="targetPoint" />
          </mxGeometry>
        </mxCell>
        <mxCell id="jRRmsLyylkFgdRP5rCnA-64" value="Guess the alphabet" style="rounded=0;whiteSpace=wrap;html=1;" vertex="1" parent="1">
          <mxGeometry x="325" y="250" width="120" height="40" as="geometry" />
        </mxCell>
      </root>
    </mxGraphModel>
  </diagram>
</mxfile>
